<svg width="64" height="64" viewBox="0 0 64 64" fill="none" xmlns="http://www.w3.org/2000/svg">
  <rect width="64" height="64" rx="18" fill="#0B2F2E"/>
  <path d="M32 13C39.2 18.1 45 25.6 45 35C45 43.3 39.2 50 32 50C24.8 50 19 43.3 19 35C19 25.6 24.8 18.1 32 13Z" fill="#DDFCF2"/>
  <path d="M32 18V45M32 32C28.4 26.4 25.2 23.6 20.5 23.1M32 32C35.6 26.4 38.8 23.6 43.5 23.1M32 42C27.8 36.4 23.9 34 18.7 33.7M32 42C36.2 36.4 40.1 34 45.3 33.7" stroke="#0F766E" stroke-width="3" stroke-linecap="round"/>
  <circle cx="32" cy="32" r="29" stroke="#5EEAD4" stroke-opacity=".45" stroke-width="2"/>
</svg>
